<svg width="50" height="50" viewBox="0 0 50 50" fill="none" xmlns="http://www.w3.org/2000/svg">
<path d="M41.3464 11.6559C41.3464 9.9942 39.9997 8.65243 38.3441 8.65243C36.6885 8.65243 35.3405 9.9942 35.3405 11.6559C35.3405 13.3116 36.6885 14.6533 38.3441 14.6533C39.9997 14.6533 41.3464 13.3116 41.3464 11.6559Z" fill="url(#paint0_linear_8_102)"/>
<path d="M45.347 35.1009C45.2358 37.5386 44.8281 38.8631 44.4896 39.7427C44.0349 40.9091 43.4925 41.743 42.6129 42.6178C41.743 43.4925 40.9091 44.0337 39.7427 44.4834C38.8631 44.8269 37.5336 45.2358 35.096 45.352C32.4607 45.4681 31.6798 45.4928 24.9969 45.4928C18.3202 45.4928 17.5331 45.4681 14.8978 45.352C12.4602 45.2358 11.1369 44.8269 10.2572 44.4834C9.08473 44.0337 8.25696 43.4925 7.38222 42.6178C6.50127 41.743 5.95891 40.9091 5.51042 39.7427C5.17183 38.8631 4.75799 37.5386 4.65291 35.1009C4.52448 32.4656 4.50094 31.6724 4.50094 25.0031C4.50094 18.3202 4.52448 17.5331 4.65291 14.8978C4.75799 12.4602 5.17183 11.1369 5.51042 10.2498C5.95891 9.08472 6.50127 8.25566 7.38222 7.38092C8.25696 6.50747 9.08473 5.96502 10.2572 5.51041C11.1369 5.16571 12.4602 4.7629 14.8978 4.64679C17.5331 4.53059 18.3202 4.50094 24.9969 4.50094C31.6798 4.50094 32.4607 4.53059 35.096 4.64679C37.5336 4.7629 38.8631 5.16571 39.7427 5.51041C40.9091 5.96502 41.743 6.50747 42.6129 7.38092C43.4925 8.25566 44.0349 9.08472 44.4896 10.2498C44.8281 11.1369 45.2358 12.4602 45.347 14.8978C45.4693 17.5331 45.499 18.3202 45.499 25.0031C45.499 31.6724 45.4693 32.4656 45.347 35.1009ZM49.848 14.6927C49.7257 12.0289 49.3056 10.209 48.6817 8.62391C48.0467 6.97941 47.1954 5.58575 45.8017 4.19209C44.4142 2.80464 43.0206 1.95334 41.3761 1.31091C39.7848 0.693119 37.971 0.26807 35.306 0.151962C32.641 0.0234413 31.7898 -7.62939e-06 24.9969 -7.62939e-06C18.2102 -7.62939e-06 17.3528 0.0234413 14.6878 0.151962C12.0289 0.26807 10.2164 0.693119 8.6177 1.31091C6.97941 1.95334 5.58575 2.80464 4.1983 4.19209C2.80465 5.58575 1.95335 6.97941 1.31211 8.62391C0.694327 10.209 0.274284 12.0289 0.14576 14.6927C0.0296523 17.3577 0 18.2102 0 25.0031C0 31.7898 0.0296523 32.641 0.14576 35.306C0.274284 37.9649 0.694327 39.7835 1.31211 41.3761C1.95335 43.0144 2.80465 44.4142 4.1983 45.8017C5.58575 47.1891 6.97941 48.0467 8.6177 48.6879C10.2164 49.3056 12.0289 49.7257 14.6878 49.848C17.3528 49.9703 18.2102 50 24.9969 50C31.7898 50 32.641 49.9703 35.306 49.848C37.971 49.7257 39.7848 49.3056 41.3761 48.6879C43.0206 48.0467 44.4142 47.1891 45.8017 45.8017C47.1954 44.4142 48.0467 43.0144 48.6817 41.3761C49.3056 39.7835 49.7257 37.9649 49.848 35.306C49.9703 32.641 50 31.7898 50 25.0031C50 18.2102 49.9703 17.3577 49.848 14.6927Z" fill="url(#paint1_linear_8_102)"/>
<path d="M24.9969 33.3293C20.3971 33.3293 16.6646 29.6029 16.6646 25.0031C16.6646 20.3959 20.3971 16.6647 24.9969 16.6647C29.598 16.6647 33.3354 20.3959 33.3354 25.0031C33.3354 29.6029 29.598 33.3293 24.9969 33.3293ZM24.9969 12.1575C17.9063 12.1575 12.1637 17.9125 12.1637 25.0031C12.1637 32.0876 17.9063 37.8364 24.9969 37.8364C32.0875 37.8364 37.8363 32.0876 37.8363 25.0031C37.8363 17.9125 32.0875 12.1575 24.9969 12.1575Z" fill="url(#paint2_linear_8_102)"/>
<defs>
<linearGradient id="paint0_linear_8_102" x1="0.450965" y1="49.4831" x2="45.8355" y2="4.09878" gradientUnits="userSpaceOnUse">
<stop stop-color="#FFD521"/>
<stop offset="0.05" stop-color="#FFD521"/>
<stop offset="0.501119" stop-color="#F50000"/>
<stop offset="0.95" stop-color="#B900B4"/>
<stop offset="0.950079" stop-color="#B900B4"/>
<stop offset="1" stop-color="#B900B4"/>
</linearGradient>
<linearGradient id="paint1_linear_8_102" x1="0.450993" y1="49.5453" x2="45.8728" y2="4.12352" gradientUnits="userSpaceOnUse">
<stop stop-color="#FFD521"/>
<stop offset="0.05" stop-color="#FFD521"/>
<stop offset="0.501119" stop-color="#F50000"/>
<stop offset="0.95" stop-color="#B900B4"/>
<stop offset="0.950079" stop-color="#B900B4"/>
<stop offset="1" stop-color="#B900B4"/>
</linearGradient>
<linearGradient id="paint2_linear_8_102" x1="0.462767" y1="49.5466" x2="45.8736" y2="4.13572" gradientUnits="userSpaceOnUse">
<stop stop-color="#FFD521"/>
<stop offset="0.05" stop-color="#FFD521"/>
<stop offset="0.501119" stop-color="#F50000"/>
<stop offset="0.95" stop-color="#B900B4"/>
<stop offset="0.950079" stop-color="#B900B4"/>
<stop offset="1" stop-color="#B900B4"/>
</linearGradient>
</defs>
</svg>
