<svg width="44" height="44" viewBox="0 0 44 44" fill="none" xmlns="http://www.w3.org/2000/svg">
<path d="M39.0625 0H4.6875C2.09961 0 0 2.09961 0 4.6875V39.0625C0 41.6504 2.09961 43.75 4.6875 43.75H39.0625C41.6504 43.75 43.75 41.6504 43.75 39.0625V4.6875C43.75 2.09961 41.6504 0 39.0625 0ZM23.8086 34.1211C23.8086 38.3789 21.3086 40.3223 17.666 40.3223C14.375 40.3223 12.4707 38.623 11.4941 36.5625L14.8438 34.541C15.4883 35.6836 16.0742 36.6504 17.4902 36.6504C18.8379 36.6504 19.6973 36.123 19.6973 34.0625V20.0879H23.8086V34.1211ZM33.5352 40.3223C29.7168 40.3223 27.2461 38.5059 26.0449 36.123L29.3945 34.1895C30.2734 35.625 31.4258 36.6895 33.4473 36.6895C35.1465 36.6895 36.2402 35.8398 36.2402 34.6582C36.2402 33.252 35.127 32.7539 33.2422 31.9238L32.2168 31.4844C29.248 30.2246 27.2852 28.6328 27.2852 25.2832C27.2852 22.1973 29.6387 19.8535 33.3008 19.8535C35.918 19.8535 37.793 20.7617 39.1406 23.1445L35.9375 25.1953C35.2344 23.9355 34.4727 23.4375 33.291 23.4375C32.0898 23.4375 31.3281 24.1992 31.3281 25.1953C31.3281 26.4258 32.0898 26.9238 33.8574 27.6953L34.8828 28.1348C38.3789 29.6289 40.3418 31.1621 40.3418 34.5996C40.3418 38.291 37.4316 40.3223 33.5352 40.3223Z" fill="#FFE500"/>
</svg>
