<svg width="50" height="27" viewBox="0 0 50 27" fill="none" xmlns="http://www.w3.org/2000/svg">
<path d="M25 1.3125C38.3906 1.3125 48.6875 6.95312 48.6875 13.1484C48.6875 19.3438 38.3828 24.9844 25 24.9844C11.6094 24.9844 1.3125 19.3438 1.3125 13.1484C1.3125 6.95312 11.6172 1.3125 25 1.3125ZM25 0C11.1953 0 0 5.88281 0 13.1484C0 20.4141 11.1953 26.2969 25 26.2969C38.8047 26.2969 50 20.4141 50 13.1484C50 5.88281 38.8047 0 25 0ZM17.0469 12.0938C16.4297 15.2578 14.25 14.9297 11.5703 14.9297L12.6406 9.41406C15.6094 9.41406 17.625 9.09375 17.0469 12.0938ZM7.60938 20.5156H10.4766L11.1562 17.0156C14.3672 17.0156 16.3594 17.25 18.2031 15.5234C20.2422 13.6484 20.7734 10.3125 19.3203 8.64062C18.5625 7.76563 17.3438 7.33594 15.6875 7.33594H10.1641L7.60938 20.5156ZM22.1172 3.82812H24.9688L24.2891 7.32812C26.75 7.32812 29.0312 7.14844 30.1328 8.16406C31.2891 9.22656 30.7344 10.5859 29.4844 17H26.5938C27.7969 10.7969 28.0234 10.2812 27.5859 9.8125C27.1641 9.35938 26.2031 9.45312 23.8828 9.45312L22.4141 17H19.5625L22.1172 3.82812ZM39.4531 12.0938C38.8281 15.3047 36.5859 14.9297 33.9766 14.9297L35.0469 9.41406C38.0312 9.41406 40.0312 9.09375 39.4531 12.0938ZM30.0156 20.5156H32.8906L33.5703 17.0156C36.9453 17.0156 38.8125 17.2109 40.6172 15.5234C42.6563 13.6484 43.1875 10.3125 41.7344 8.64062C40.9766 7.76563 39.7578 7.33594 38.1016 7.33594H32.5781L30.0156 20.5156Z" fill="#B800C8"/>
</svg>
